<svg xmlns="http://www.w3.org/2000/svg" viewBox="0 0 128 128">
  <defs>
    <radialGradient id="bg" cx="50%" cy="42%" r="78%">
      <stop offset="0%" stop-color="#173a86" />
      <stop offset="68%" stop-color="#0a1f52" />
      <stop offset="100%" stop-color="#061227" />
    </radialGradient>
    <filter id="glow" x="-50%" y="-50%" width="200%" height="200%">
      <feGaussianBlur stdDeviation="2.6" result="blur" />
      <feMerge>
        <feMergeNode in="blur" />
        <feMergeNode in="SourceGraphic" />
      </feMerge>
    </filter>
    <clipPath id="innerCircle">
      <circle cx="64" cy="64" r="32.5" />
    </clipPath>
    <path id="topArc" d="M 18 67 A 46 46 0 0 1 110 67" />
    <path id="bottomArc" d="M 110 67 A 46 46 0 0 1 18 67" />
  </defs>

  <circle cx="64" cy="64" r="60" fill="url(#bg)" />
  <circle cx="64" cy="64" r="57.5" fill="none" stroke="#0c2250" stroke-width="2.2" />
  <circle cx="64" cy="64" r="55" fill="none" stroke="#4c77e9" stroke-width="1.8" opacity="0.95" filter="url(#glow)" />
  <circle cx="64" cy="64" r="48.5" fill="none" stroke="#274ea8" stroke-width="1.5" opacity="0.95" />

  <g opacity="0.9">
    <polygon points="15,44 30,50 26,79 15,74" fill="#2f58b2" />
    <polygon points="15,44 22,47 19,60 15,59" fill="#f7f1df" />
    <polygon points="22,47 29,50 27,62 19,60" fill="#2f58b2" />
    <polygon points="19,60 27,62 26,73 17,71" fill="#f7f1df" />
    <polygon points="17,71 26,73 25,79 15,74" fill="#2f58b2" />

    <polygon points="113,44 98,50 102,79 113,74" fill="#2f58b2" />
    <polygon points="113,44 106,47 109,60 113,59" fill="#f7f1df" />
    <polygon points="106,47 99,50 101,62 109,60" fill="#2f58b2" />
    <polygon points="109,60 101,62 102,73 111,71" fill="#f7f1df" />
    <polygon points="111,71 102,73 103,79 113,74" fill="#2f58b2" />
  </g>

  <circle cx="64" cy="64" r="32.5" fill="#10265f" />
  <g clip-path="url(#innerCircle)">
    <rect x="31.5" y="31.5" width="65" height="65" fill="#2f58b2" />
    <rect x="31.5" y="31.5" width="10.83" height="10.83" fill="#f7f1df" />
    <rect x="53.16" y="31.5" width="10.83" height="10.83" fill="#f7f1df" />
    <rect x="74.82" y="31.5" width="10.83" height="10.83" fill="#f7f1df" />
    <rect x="42.33" y="42.33" width="10.83" height="10.83" fill="#f7f1df" />
    <rect x="63.99" y="42.33" width="10.83" height="10.83" fill="#f7f1df" />
    <rect x="85.65" y="42.33" width="10.83" height="10.83" fill="#f7f1df" />
    <rect x="31.5" y="53.16" width="10.83" height="10.83" fill="#f7f1df" />
    <rect x="53.16" y="53.16" width="10.83" height="10.83" fill="#f7f1df" />
    <rect x="74.82" y="53.16" width="10.83" height="10.83" fill="#f7f1df" />
    <rect x="42.33" y="63.99" width="10.83" height="10.83" fill="#f7f1df" />
    <rect x="63.99" y="63.99" width="10.83" height="10.83" fill="#f7f1df" />
    <rect x="85.65" y="63.99" width="10.83" height="10.83" fill="#f7f1df" />
    <rect x="31.5" y="74.82" width="10.83" height="10.83" fill="#f7f1df" />
    <rect x="53.16" y="74.82" width="10.83" height="10.83" fill="#f7f1df" />
    <rect x="74.82" y="74.82" width="10.83" height="10.83" fill="#f7f1df" />
    <rect x="42.33" y="85.65" width="10.83" height="10.83" fill="#f7f1df" />
    <rect x="63.99" y="85.65" width="10.83" height="10.83" fill="#f7f1df" />
    <rect x="85.65" y="85.65" width="10.83" height="10.83" fill="#f7f1df" />
  </g>

  <text
    font-size="11.2"
    font-family="Georgia, Times New Roman, serif"
    font-weight="700"
    letter-spacing="1.1"
    fill="#fbf5e2"
  >
    <textPath href="#topArc" startOffset="50%" text-anchor="middle">HANAN'S</textPath>
  </text>

  <text
    font-size="9.8"
    font-family="Georgia, Times New Roman, serif"
    font-weight="700"
    letter-spacing="0.8"
    fill="#fbf5e2"
  >
    <textPath href="#bottomArc" startOffset="50%" text-anchor="middle">CHECKMATE ARENA</textPath>
  </text>

  <text
    x="64"
    y="95.5"
    text-anchor="middle"
    font-size="5.2"
    font-family="Georgia, Times New Roman, serif"
    font-weight="700"
    fill="#213974"
  >CLASSIC</text>

  <g filter="url(#glow)">
    <text
      x="64"
      y="83"
      text-anchor="middle"
      font-size="55"
      font-family="Georgia, Times New Roman, serif"
      fill="#1f130e"
      stroke="#cda86d"
      stroke-width="1.8"
      paint-order="stroke fill"
    >&#9822;</text>
  </g>
</svg>
